Patient4_TMGait_0pt6_01_right_42_EMG.mot
version=1
nRows=13
nColumns=33
inDegrees=no
endheader
time	1LAddLong	2LGlutMax	3LGlutMed	4LIliopsoas	5LSemiMemb	6LBicFemLong	7LRecFem	8LVastMed	9LVastLat	10LGasMed	11LTibAnt	12lTibPost	13LPeroneusLong	14LSol	15LExtDigLong	16LFlexDigLong	17RAddLong	18RGlutMax	19RGlutMed	20RIliopsoas	21RSemiMemb	22RBicFemLong	23RRecFem	24RVastMed	25RVastLat	26RGasMed	27RTibAnt	28RTibPost	29RPeroneusLong	30RSol	31RExtDigLong	32RFlexDigLong
51.778	0.006256	-0.074005	-0.005035	-0.001221	-0.008545	-0.4364	0.066528	0.053864	0.12299	0.025635	-0.11765	-0.014038	-0.27817	-0.013275	-0.14618	-0.020752	0.019073	-0.063324	0.18692	0.048218	-0.021667	0.019989	0.16556	-0.24292	0.032959	0.003967	0.021362	0.037079	0.25513	-0.070038	0.001526	0.004272
51.779	0.009613	-0.037384	0.21271	0.013123	0.006866	-0.019989	0.079956	-0.031281	0.28381	-0.014801	-0.076752	-0.015564	0.55222	-0.042114	-0.16251	-0.014954	0.023346	-0.000763	0.26047	-0.045929	-0.039368	-0.007324	0.015259	-0.21683	0.024872	0.001678	0.014496	0.046082	0.053253	-0.071869	0.000305	-0.003815
51.78	0.020447	-0.0177	0.10849	0.019836	0.000458	0.19302	0.11597	-0.036469	0.22934	-0.063019	-0.10895	-0.011444	-1.089	0.018005	-0.033569	-0.007629	0.030365	-0.016632	-0.008545	-0.001068	-0.040436	-0.044708	-0.10269	-0.23529	0.003662	-0.002594	0.10147	-0.00885	-0.020905	-0.036163	0.002594	-0.001984
51.781	0.009766	-0.013733	0.041046	0.007019	-0.036621	0.28	0.15579	-0.027924	0.001678	-0.13046	-0.035858	-0.01358	-0.33936	0.13046	0.080109	-0.011597	0.023499	-0.037079	-0.18143	0.039825	-0.040131	-0.077667	-0.13382	-0.15457	-0.003357	-0.004272	0.15137	-0.008545	-0.030365	-0.009155	0	-0.003357
51.782	0.007629	0.013885	0.11536	0.000763	-0.073853	0.28534	0.19363	-0.006714	-0.1149	-0.19028	0.00885	-0.006104	0.85693	0.19821	0.17822	-0.000458	0.037689	0.006714	0.15076	-0.016022	-0.047913	-0.066223	-0.159	-0.09079	0.006561	0.001984	0.23926	-0.004425	-0.023804	-0.041504	-0.000458	-0.00885
51.783	-0.002136	-0.026398	-0.016022	0.008698	-0.11169	0.36987	0.21713	0.001831	-0.088196	-0.10239	-0.02594	-0.01236	0.21652	0.09552	0.11627	-0.003052	0.063171	-0.019836	0.041199	-0.12451	-0.021973	-0.073395	-0.25909	-0.11154	0.005646	0.000153	0.18005	-0.00061	-0.012054	-0.042877	-0.000153	-0.009613
51.784	0	-0.009003	-0.05661	-0.000305	-0.075684	0.33569	0.1828	0.010834	-0.083466	0.13809	-0.037994	-0.000763	-0.31799	-0.050049	0.20554	-0.003967	0.097046	-0.037079	-0.13458	-0.21164	0.017853	-0.11261	-0.31509	-0.13962	0.00351	-0.006104	-0.032043	-0.004883	0.14389	-0.053558	0.000153	-0.010834
51.785	0.000763	0.009155	-0.097351	0.011749	0.009918	0.081024	0.19394	0.006561	-0.089569	0.4126	0.000305	-0.005341	-0.55023	-0.063629	-0.1001	0.000153	0.088348	-0.018005	-0.010986	-0.2475	0.049744	-0.087585	-0.40207	-0.12863	-0.022125	-0.007782	-0.17685	-0.007782	0.079498	-0.059357	0.003662	-0.00885
51.786	-0.004578	-0.065155	0.018005	0.013885	0.09079	-0.57159	0.22644	0.009155	-0.083618	0.61768	0.032349	-0.018158	0.085449	-0.15549	-0.42343	-0.007935	0.062714	0.016174	-0.043182	-0.34317	0.025635	-0.089264	-0.29694	-0.11612	-0.010223	-0.007172	-0.080719	-0.005493	-0.31967	-0.07309	0.001373	-0.015106
51.787	-0.001526	-0.024414	-0.054779	0.020447	0.042877	-0.6456	0.23331	0.014343	-0.10346	0.77576	0.001831	-0.015411	-0.032043	-0.019226	-0.097961	0.007629	0.028381	0.0354	-0.1149	-0.4512	0.019073	-0.052338	-0.21454	-0.045624	0.031433	-0.00885	0.13153	-0.005188	-0.047455	-0.043793	0.001984	-0.006409
51.788	0.004883	-0.038452	-0.1091	0.013428	-0.006561	-0.3421	0.12253	0.009918	-0.15198	0.46783	0.023499	-0.029449	-0.27756	-0.027313	-0.046997	-0.00061	-0.025787	0.00473	-0.090332	-0.5072	-0.10178	0.009155	-0.17258	0.009003	0.049438	-0.011749	0.58258	-0.006866	1.0155	-0.034637	0.003815	-0.014191
51.789	0.006866	-0.005798	-0.064545	-0.022278	0.015106	-0.17425	0.10315	0.011444	-0.17425	-0.31815	0.042419	-0.024261	-0.13473	-0.034485	-0.10284	-0.007935	-0.017395	0.020294	-0.36377	-0.32959	-0.15869	0.086212	-0.18036	0.083771	0.029449	-0.012054	1.0477	-0.00473	0.65506	-0.12482	-0.001068	-0.008545
51.79	0.013733	-0.016937	-0.052032	-0.016022	0.011444	-0.10101	0.084534	0.009613	-0.09201	-0.87372	0.034485	-0.018158	0.025024	-0.10132	-0.073547	0.005798	-0.013733	-0.11429	0.16617	0.23544	-0.11948	0.19989	-0.24841	0.035553	0.009155	-0.011292	0.53024	-0.003052	0.078888	-0.14862	-0.00061	-0.00061
